<svg width="104" height="104" viewBox="0 0 104 104" fill="none" xmlns="http://www.w3.org/2000/svg">
<circle cx="52" cy="52" r="52" fill="#00ABED" fill-opacity="0.4"/>
<circle cx="52" cy="52" r="45" fill="#00ABED"/>
<g clip-path="url(#clip0_411_627)">
<path d="M61.2903 55.8229C60.6351 55.1407 59.8449 54.776 59.0075 54.776C58.1767 54.776 57.3798 55.134 56.6977 55.8161L54.5634 57.9436C54.3878 57.849 54.2122 57.7612 54.0434 57.6734C53.8003 57.5518 53.5706 57.437 53.3748 57.3155C51.3756 56.0457 49.5589 54.3911 47.8164 52.2501C46.9722 51.183 46.4048 50.2847 45.9929 49.373C46.5467 48.8664 47.06 48.3396 47.5597 47.8331C47.7488 47.644 47.938 47.4481 48.1271 47.259C49.5454 45.8407 49.5454 44.0037 48.1271 42.5854L46.2833 40.7416C46.0739 40.5322 45.8578 40.3161 45.6552 40.1C45.2499 39.6812 44.8244 39.249 44.3854 38.8438C43.7303 38.1954 42.9469 37.851 42.1229 37.851C41.2989 37.851 40.502 38.1954 39.8266 38.8438C39.8199 38.8505 39.8199 38.8505 39.8131 38.8573L37.5168 41.1738C36.6523 42.0383 36.1593 43.0919 36.0512 44.3144C35.8891 46.2865 36.47 48.1235 36.9157 49.3257C38.0098 52.2771 39.6443 55.0124 42.0824 57.9436C45.0406 61.4758 48.5998 64.2651 52.6656 66.2305C54.219 66.9667 56.2924 67.8379 58.609 67.9865C58.7508 67.9932 58.8994 68 59.0345 68C60.5946 68 61.9049 67.4394 62.9314 66.3251C62.9382 66.3116 62.9517 66.3048 62.9584 66.2913C63.3096 65.8658 63.7149 65.4808 64.1404 65.0688C64.4308 64.7919 64.7279 64.5015 65.0184 64.1976C65.687 63.502 66.0382 62.6915 66.0382 61.8608C66.0382 61.0233 65.6802 60.2196 64.9981 59.5442L61.2903 55.8229ZM63.7081 62.9346C63.7014 62.9346 63.7014 62.9414 63.7081 62.9346C63.4447 63.2183 63.1746 63.4749 62.8842 63.7586C62.4452 64.1773 61.9994 64.6163 61.5807 65.1094C60.8985 65.8388 60.0948 66.1832 59.0412 66.1832C58.9399 66.1832 58.8319 66.1832 58.7306 66.1765C56.7247 66.0482 54.8606 65.2647 53.4626 64.5961C49.6399 62.7455 46.2833 60.1183 43.4939 56.7887C41.1909 54.0128 39.651 51.4464 38.6312 48.6908C38.0031 47.0091 37.7735 45.6989 37.8748 44.4629C37.9423 43.6727 38.2462 43.0176 38.8068 42.4571L41.1098 40.154C41.4408 39.8433 41.792 39.6745 42.1364 39.6745C42.5619 39.6745 42.9064 39.9311 43.1225 40.1473C43.1292 40.154 43.136 40.1608 43.1427 40.1675C43.5547 40.5525 43.9464 40.951 44.3584 41.3764C44.5678 41.5926 44.7839 41.8087 45 42.0316L46.8438 43.8754C47.5597 44.5913 47.5597 45.2531 46.8438 45.969C46.648 46.1649 46.4589 46.3608 46.263 46.5499C45.6957 47.1307 45.1554 47.671 44.5678 48.1978C44.5543 48.2113 44.5408 48.2181 44.534 48.2316C43.9532 48.8124 44.0613 49.3797 44.1828 49.7647C44.1896 49.785 44.1963 49.8052 44.2031 49.8255C44.6826 50.9871 45.358 52.0813 46.3846 53.3847L46.3913 53.3915C48.2554 55.6878 50.2207 57.4776 52.3887 58.8486C52.6656 59.0242 52.9493 59.166 53.2194 59.3011C53.4626 59.4227 53.6922 59.5375 53.8881 59.659C53.9151 59.6725 53.9421 59.6928 53.9691 59.7063C54.1987 59.8211 54.4149 59.8752 54.6377 59.8752C55.1983 59.8752 55.5495 59.524 55.6643 59.4091L57.9741 57.0993C58.2038 56.8697 58.5685 56.5928 58.994 56.5928C59.4127 56.5928 59.7571 56.8562 59.9665 57.0858C59.9733 57.0926 59.9733 57.0926 59.98 57.0993L63.7014 60.8207C64.397 61.5096 64.397 62.2187 63.7081 62.9346Z" fill="white"/>
<path d="M53.2935 43.6119C55.063 43.9091 56.6704 44.7466 57.9536 46.0298C59.2368 47.313 60.0676 48.9204 60.3715 50.6899C60.4458 51.1357 60.8307 51.4464 61.2697 51.4464C61.3238 51.4464 61.371 51.4396 61.4251 51.4329C61.9249 51.3518 62.2558 50.8791 62.1747 50.3793C61.81 48.2383 60.797 46.2865 59.2503 44.7398C57.7037 43.1932 55.7519 42.1801 53.6109 41.8154C53.1111 41.7344 52.6451 42.0653 52.5573 42.5583C52.4695 43.0514 52.7937 43.5309 53.2935 43.6119Z" fill="white"/>
<path d="M67.9618 50.1159C67.3607 46.5904 65.6993 43.3823 63.1463 40.8294C60.5934 38.2764 57.3853 36.615 53.8598 36.0139C53.3668 35.9261 52.9008 36.2638 52.813 36.7568C52.7319 37.2566 53.0629 37.7226 53.5627 37.8104C56.7099 38.344 59.5803 39.8366 61.8631 42.1126C64.1459 44.3954 65.6317 47.2658 66.1653 50.413C66.2396 50.8588 66.6245 51.1695 67.0635 51.1695C67.1176 51.1695 67.1648 51.1627 67.2189 51.156C67.7119 51.0817 68.0496 50.6089 67.9618 50.1159Z" fill="white"/>
</g>
<defs>
<clipPath id="clip0_411_627">
<rect width="32" height="32" fill="white" transform="translate(36 36)"/>
</clipPath>
</defs>
</svg>
