<svg width="16" height="16" viewBox="0 0 16 16" fill="none" xmlns="http://www.w3.org/2000/svg">
<g clip-path="url(#clip0_411_637)">
<path d="M15.9875 4.70404C15.95 3.8539 15.8125 3.26944 15.6156 2.76299C15.4124 2.22541 15.0999 1.74412 14.6904 1.34401C14.2903 0.937683 13.8058 0.621948 13.2744 0.421957C12.7651 0.22502 12.1836 0.0875415 11.3335 0.0500586C10.477 0.00940124 10.2051 0 8.03281 0C5.86051 0 5.58861 0.00940124 4.73529 0.0468842C3.88515 0.0843671 3.30069 0.221967 2.79436 0.418783C2.25666 0.621948 1.77536 0.934509 1.37526 1.34401C0.968933 1.74412 0.65332 2.22858 0.453207 2.75994C0.256269 3.26944 0.118791 3.85073 0.0813086 4.70087C0.0406512 5.55736 0.03125 5.82926 0.03125 8.00156C0.03125 10.1739 0.0406512 10.4458 0.0781341 11.2991C0.115617 12.1492 0.253217 12.7337 0.450155 13.2401C0.65332 13.7777 0.968933 14.259 1.37526 14.6591C1.77536 15.0654 2.25983 15.3812 2.79119 15.5812C3.30069 15.7781 3.88198 15.9156 4.73224 15.9531C5.58543 15.9907 5.85746 16 8.02976 16C10.2021 16 10.474 15.9907 11.3273 15.9531C12.1774 15.9156 12.7619 15.7781 13.2682 15.5812C14.3435 15.1654 15.1936 14.3153 15.6094 13.2401C15.8062 12.7306 15.9438 12.1492 15.9813 11.2991C16.0187 10.4458 16.0281 10.1739 16.0281 8.00156C16.0281 5.82926 16.025 5.55736 15.9875 4.70404ZM14.5467 11.2366C14.5122 12.018 14.381 12.4399 14.2716 12.7212C14.0027 13.4183 13.4495 13.9715 12.7525 14.2403C12.4712 14.3497 12.0462 14.481 11.2678 14.5153C10.4239 14.5529 10.1708 14.5622 8.03598 14.5622C5.90117 14.5622 5.64489 14.5529 4.80403 14.5153C4.02263 14.481 3.60067 14.3497 3.31937 14.2403C2.9725 14.1121 2.65676 13.909 2.40049 13.6433C2.13481 13.3838 1.93164 13.0713 1.80345 12.7244C1.69405 12.4431 1.5628 12.018 1.52849 11.2397C1.49089 10.3958 1.48161 10.1426 1.48161 8.00779C1.48161 5.87297 1.49089 5.6167 1.52849 4.77596C1.5628 3.99455 1.69405 3.5726 1.80345 3.29129C1.93164 2.9443 2.13481 2.62869 2.40366 2.37229C2.66299 2.10661 2.97555 1.90345 3.32254 1.77537C3.60385 1.66597 4.02898 1.53472 4.80721 1.50029C5.65112 1.46281 5.90434 1.45341 8.03904 1.45341C10.177 1.45341 10.4301 1.46281 11.271 1.50029C12.0524 1.53472 12.4743 1.66597 12.7557 1.77537C13.1025 1.90345 13.4183 2.10661 13.6745 2.37229C13.9402 2.63174 14.1434 2.9443 14.2716 3.29129C14.381 3.5726 14.5122 3.99761 14.5467 4.77596C14.5841 5.61987 14.5935 5.87297 14.5935 8.00779C14.5935 10.1426 14.5841 10.3927 14.5467 11.2366Z" fill="white" stroke="white" stroke-width="0.2"/>
<path d="M8.03205 3.89139C5.76293 3.89139 3.92188 5.73232 3.92188 8.00157C3.92188 10.2708 5.76293 12.1117 8.03205 12.1117C10.3013 12.1117 12.1422 10.2708 12.1422 8.00157C12.1422 5.73232 10.3013 3.89139 8.03205 3.89139ZM8.03205 10.6677C6.55996 10.6677 5.36588 9.47378 5.36588 8.00157C5.36588 6.52935 6.55996 5.3354 8.03205 5.3354C9.50426 5.3354 10.6982 6.52935 10.6982 8.00157C10.6982 9.47378 9.50426 10.6677 8.03205 10.6677Z" fill="white"/>
<path d="M13.2629 3.72889C13.2629 4.25878 12.8333 4.68843 12.3033 4.68843C11.7734 4.68843 11.3438 4.25878 11.3438 3.72889C11.3438 3.19888 11.7734 2.76935 12.3033 2.76935C12.8333 2.76935 13.2629 3.19888 13.2629 3.72889Z" fill="white"/>
</g>
<defs>
<clipPath id="clip0_411_637">
<rect width="16" height="16" fill="white"/>
</clipPath>
</defs>
</svg>
