<svg width="20" height="14" viewBox="0 0 20 14" fill="none" xmlns="http://www.w3.org/2000/svg">
<path d="M18.3896 0.457047H1.61038C1.2733 0.457047 1 0.730349 1 1.06742V12.9326C1 13.2696 1.2733 13.5429 1.61038 13.5429H18.3896C18.7266 13.5429 19 13.2696 19 12.9326V1.06742C19 0.730397 18.7266 0.457047 18.3896 0.457047ZM17.7792 12.3222H2.22075V1.6778H17.7792V12.3222Z" fill="white" stroke="white" stroke-width="0.2"/>
<path d="M3.82155 4.55306L9.68116 8.16341C9.77931 8.22391 9.8903 8.25414 10.0013 8.25414C10.1124 8.25414 10.2234 8.22391 10.3215 8.16341L16.1811 4.55306C16.4681 4.37624 16.5575 4.0002 16.3806 3.71323C16.2038 3.42625 15.8277 3.33689 15.5408 3.51376L10.0013 6.92679L4.46191 3.51376C4.17503 3.33704 3.79899 3.42621 3.62208 3.71323C3.44521 4.00015 3.53452 4.37624 3.82155 4.55306Z" fill="white" stroke="white" stroke-width="0.2"/>
</svg>
