<svg width="178" height="56" viewBox="0 0 178 56" fill="none" xmlns="http://www.w3.org/2000/svg">
<path fill-rule="evenodd" clip-rule="evenodd" d="M0.886719 29.4073C0.952221 30.3789 1.315 30.8208 2.99285 32.5042C5.56758 35.0833 7.75769 36.485 10.9303 38.0925C11.4409 38.3506 12.2941 38.7622 12.892 38.9022C12.892 31.5191 15.1157 24.6792 19.7899 19.4148L22.1546 16.9234C22.4771 16.6029 22.7324 16.4393 23.0801 16.1155C23.9417 15.3109 25.9403 13.9429 26.9111 13.3559C28.3337 12.499 29.7125 11.8395 31.3299 11.1884C32.4099 10.7532 35.4314 9.74112 36.5583 9.71582C35.6967 8.42543 30.8395 5.69622 28.8963 5.0097C25.3172 3.74462 21.2779 2.67689 17.2739 3.1087C16.4627 3.19642 15.282 3.93523 14.5884 4.35186C6.45941 9.23003 0.886719 17.9372 0.886719 27.6682V29.4073Z" fill="#00ABED"/>
<path fill-rule="evenodd" clip-rule="evenodd" d="M102.707 37.9761V30.6791C103.102 30.6791 104.56 30.8276 104.884 30.9288C105.554 31.1329 105.824 31.6507 105.824 32.4165V36.0077C105.824 37.8007 104.698 37.9761 102.707 37.9761ZM104.325 27.2044H102.707V21.4136C106.063 21.4136 105.824 22.0951 105.824 25.1195C105.824 26.3239 105.527 27.2044 104.325 27.2044ZM95.2031 41.7984H105.94C108.878 41.7984 112.145 41.7764 113.03 39.1822C113.601 37.5055 113.901 31.7603 112.321 30.2996C111.716 29.7413 109.929 28.967 108.826 28.9417C108.903 28.014 109.854 28.7613 111.595 27.6665C113.434 26.5111 112.991 22.5286 112.277 20.8469C111.891 19.936 111.254 19.3035 110.408 18.784C108.787 17.7904 106.288 17.5914 103.747 17.5914H95.2031V41.7984Z" fill="#00ABED"/>
<path fill-rule="evenodd" clip-rule="evenodd" d="M124.41 37.9761V30.6791C124.819 30.6876 125.252 30.7635 125.791 30.8006C126.169 30.8259 126.784 30.9844 127.022 31.1868C127.711 31.7688 127.717 36.5862 127.042 37.3723C126.626 37.8597 125.312 37.9761 124.41 37.9761ZM125.912 27.2044H124.41V21.4136C127.266 21.4136 127.225 21.9349 127.465 23.5643C127.528 23.9792 127.457 25.5024 127.371 26.0051C127.23 26.8333 126.815 27.2044 125.912 27.2044ZM127.227 41.7984C135.26 41.7984 135.008 40.1605 135.032 33.9211C135.037 32.7302 134.929 32.0724 134.572 31.2577C134.256 30.5408 133.75 30.0297 133.033 29.6738C132.501 29.4107 131.229 28.9569 130.529 28.9417V28.4779C131.28 28.4779 132.266 28.1338 132.803 27.8639C133.655 27.4354 133.92 27.2432 134.241 26.2952C134.736 24.8327 134.451 22.3279 133.979 21.0797C132.773 17.8866 128.849 17.5914 125.615 17.5914C125.232 17.8933 118.023 17.6875 116.906 17.6875V41.7022L127.135 41.7613C127.153 41.7326 127.198 41.7815 127.227 41.7984Z" fill="#00ABED"/>
<path fill-rule="evenodd" clip-rule="evenodd" d="M22.8224 42.1458C20.9766 42.1458 15.8406 41.5673 14.3945 40.8706C14.7741 45.4536 16.7106 50.1108 19.1913 53.7796C20.0613 55.0683 26.6719 55.6957 28.0172 55.6957H29.3004C30.5953 55.6704 31.0757 55.4461 33.4203 53.9364C36.2117 52.1383 36.126 51.833 37.7804 50.5511L39.7034 48.5438C43.9946 43.6741 46.3712 37.0214 46.3712 30.3316C46.1108 30.4261 46.2788 30.3552 46.0974 30.5189L42.7098 34.3006C37.6477 39.1889 29.8614 42.1458 22.8224 42.1458Z" fill="#00ABED"/>
<path fill-rule="evenodd" clip-rule="evenodd" d="M147.383 38.5547C146.763 38.5547 146.239 38.4046 146.023 37.9508C145.53 36.9168 145.766 25.1212 145.766 23.0346C145.766 22.5691 145.878 21.778 146.046 21.4626C146.327 20.9413 148.769 19.6864 148.769 23.2674C148.769 25.3894 148.925 36.1983 148.587 37.5629C148.421 38.2275 147.87 38.5547 147.383 38.5547ZM138.147 28.3632L138.258 35.7799C138.392 40.3393 142.479 42.2605 146.343 42.2605C149.838 42.2605 153.377 41.9772 155.297 39.0826C156.059 37.9356 156.283 36.6975 156.273 34.8488C156.263 33.0929 156.387 31.5967 156.387 29.7531C156.387 28.4138 156.301 23.4884 156.095 22.2857C155.495 18.8042 151.456 17.1275 148.191 17.1275H146.343C143.522 17.1275 140.707 18.3353 139.481 19.9714C137.897 22.09 138.147 25.2882 138.147 28.3632Z" fill="#00ABED"/>
<path fill-rule="evenodd" clip-rule="evenodd" d="M166.086 30.8225L166.548 30.7904L170.589 41.6331C171.202 41.8726 176.041 41.7106 177.159 41.7106V17.6791C175.797 17.6791 172.147 17.5104 171.049 17.7499V28.4779C170.261 28.4779 170.663 28.6752 170.124 27.4388C169.927 26.9901 169.736 26.5161 169.549 26.0472C169.238 25.2662 166.387 18.0755 166.086 17.6892L159.852 17.6858V41.7022H165.97C165.99 40.3191 165.824 31.2796 166.086 30.8225Z" fill="#00ABED"/>
<path fill-rule="evenodd" clip-rule="evenodd" d="M71.4204 27.2044H70.3808V21.4136C71.926 21.4136 73.2679 21.5857 73.2679 23.151V25.3523C73.2679 26.6663 72.7321 27.2044 71.4204 27.2044ZM70.3808 30.728C70.883 30.6454 72.3274 30.8529 72.6498 31.0671C73.1571 31.4061 73.2679 32.3507 73.2679 33.1806C73.4762 33.6546 73.362 40.567 73.362 41.7022H80.1943L80.1758 36.8173C80.1742 36.5525 80.1607 36.2573 80.1658 35.9975C80.1674 35.9199 80.1725 35.7378 80.1842 35.6652C80.1909 35.6298 80.1977 35.5995 80.2044 35.5674L80.2699 35.3954C80.2766 35.3768 80.2917 35.3414 80.3102 35.3161C80.3102 32.9731 80.5084 30.7904 77.9017 29.8526C76.5967 29.382 76.1785 29.5861 76.0375 29.0581C76.3062 28.9282 76.9948 28.8844 77.3962 28.7984C78.7751 28.5049 79.6921 28.1608 80.0532 26.6005C80.463 24.8277 80.411 22.4038 79.8013 20.8806C78.3938 17.362 73.7096 17.5914 70.0147 17.5914C69.62 17.8916 63.9112 17.6943 62.8867 17.6943V41.6938H70.3086C70.3119 40.3106 70.1541 31.2003 70.3808 30.728Z" fill="#00ABED"/>
<path fill-rule="evenodd" clip-rule="evenodd" d="M39.6766 10.6419C39.9218 11.0113 40.2123 11.1985 40.513 11.5409C43.7041 15.1709 45.9278 19.5481 47.0212 24.3537C48.2724 29.8644 47.829 35.3819 45.9244 40.653C45.4441 41.9822 45.303 42.1121 44.8395 43.1562C44.0333 44.9729 42.8223 46.7305 41.6551 48.3009C40.7683 49.4934 39.9067 50.406 38.8402 51.3843C37.4478 52.6612 37.3353 52.8484 35.6541 54.0933C35.2728 54.375 34.4818 54.8001 34.25 55.1172C34.9621 55.0581 36.0169 54.7309 36.6601 54.5234C39.302 53.6767 40.6087 53.1487 43.0608 51.6795C43.7226 51.2848 44.2768 50.9019 44.8697 50.4836L46.6298 49.1224C54.4145 42.1425 58.2992 32.5616 55.4927 21.1809C54.8092 18.4112 53.3832 15.3379 51.8448 13.0287C51.6886 12.7942 51.6281 12.693 51.4803 12.467C51.2754 12.1515 51.3208 12.1347 50.9261 11.9812C47.8744 10.7937 44.2063 10.5272 40.7145 10.5272C40.1351 10.5272 40.1989 10.6301 39.6766 10.6419Z" fill="#00ABED"/>
<path fill-rule="evenodd" clip-rule="evenodd" d="M84.0352 41.6735H91.4369L91.4385 17.7162H84.0385L84.0352 41.6735Z" fill="#00ABED"/>
<path fill-rule="evenodd" clip-rule="evenodd" d="M49.4887 10.0633C49.3577 9.56738 48.7212 9.12039 48.3634 8.75941C45.4074 5.79574 41.7981 3.42076 37.8159 2.08483C35.1623 1.19421 32.5775 0.689861 29.9776 0.566727H27.4515C25.599 0.652752 23.728 0.931071 21.805 1.4C21.6941 1.42698 21.5077 1.46241 21.3397 1.51132L20.8594 1.72386L24.8516 2.35134C29.4065 3.25377 34.6668 5.93912 38.0242 9.05629C38.7011 9.68546 39.079 9.24352 41.0608 9.13557C45.0346 8.92135 48.6137 10.0431 49.4887 10.0633Z" fill="#00ABED"/>
<path fill-rule="evenodd" clip-rule="evenodd" d="M17.0479 53.1487C16.9371 52.673 15.9495 51.1364 15.6455 50.3858C15.187 49.2472 14.8931 48.7732 14.4346 47.4305C13.8367 45.6847 13.007 42.2892 13.007 40.4085C12.4611 40.2803 11.8649 40.0087 11.3224 39.781C9.32712 38.9426 8.43193 38.3557 6.58948 37.2323C6.29388 37.0518 6.18303 36.9455 5.91599 36.7515C4.78398 35.9284 2.93481 34.4423 1.95061 33.4319C1.70036 33.1756 1.57775 32.9343 1.34766 32.764C1.34766 34.7645 2.65097 37.7821 3.45883 39.6798C5.43228 44.315 9.70837 48.9959 14.0819 51.607C14.7403 52 16.3492 52.9851 17.0479 53.1487Z" fill="#00ABED"/>
<path fill-rule="evenodd" clip-rule="evenodd" d="M84.0384 17.7162H91.4384L91.4368 41.6735H84.0351L84.0384 17.7162ZM83.8906 41.7984H91.5107V17.5914H83.8906V41.7984Z" fill="#00ABED"/>
<path fill-rule="evenodd" clip-rule="evenodd" d="M70.384 30.728C70.1573 31.2003 70.3151 40.3106 70.3118 41.6938H62.8899V17.6943C63.9144 17.6943 69.6232 17.8916 70.0178 17.5914H62.7656V41.7984H70.384V30.728Z" fill="#00ABED"/>
<path fill-rule="evenodd" clip-rule="evenodd" d="M166.085 30.8225C165.823 31.2796 165.989 40.3191 165.969 41.7022H159.85V17.6859L166.085 17.6892C165.441 17.3451 163.822 17.5914 162.967 17.5914C161.891 17.5914 160.813 17.5914 159.734 17.5914V41.7984H166.085V30.8225Z" fill="#00ABED"/>
<path fill-rule="evenodd" clip-rule="evenodd" d="M127.228 41.7984C127.199 41.7815 127.154 41.7326 127.136 41.7613L116.907 41.7022V17.6875C118.024 17.6875 125.233 17.8933 125.616 17.5914H116.793V41.7984H127.228Z" fill="#00ABED"/>
<path fill-rule="evenodd" clip-rule="evenodd" d="M170.59 41.6331C170.775 41.9485 171.159 41.8001 172.09 41.7984H177.284V17.5914H172.552C172.122 17.5897 171.381 17.4632 171.05 17.75C172.148 17.5104 175.798 17.6791 177.16 17.6791V41.7107C176.042 41.7107 171.203 41.8726 170.59 41.6331Z" fill="#00ABED"/>
<path fill-rule="evenodd" clip-rule="evenodd" d="M80.3118 35.3161C80.2933 35.3414 80.2782 35.3768 80.2715 35.3953L80.206 35.5674C80.1993 35.5994 80.1926 35.6298 80.1858 35.6652C80.1741 35.7378 80.1691 35.9199 80.1674 35.9975C80.1623 36.2573 80.1758 36.5525 80.1775 36.8173L80.1959 41.7022H73.3636C73.3636 40.567 73.4778 33.6546 73.2695 33.1806V41.7984H80.3118V35.3161Z" fill="#00ABED"/>
<path fill-rule="evenodd" clip-rule="evenodd" d="M49.4883 10.0633V10.1797L49.6232 10.0818L49.4883 10.0633Z" fill="#00ABED"/>
</svg>
